<svg id="Warstwa_1" data-name="Warstwa 1" xmlns="http://www.w3.org/2000/svg" xmlns:xlink="http://www.w3.org/1999/xlink" viewBox="0 0 892.74191 216.49592"><defs><style>.cls-1{fill:#fff;}.cls-2{fill:#2374e8;}.cls-3{fill:#112944;}.cls-4{mask:url(#mask);}.cls-5{fill:#ffb400;}</style><mask id="mask" x="292.49884" y="176.33471" width="216.67465" height="40.9925" maskUnits="userSpaceOnUse"><g transform="translate(-53.29034 -35.7864)"><g id="mask-2"><rect id="path-1" class="cls-1" x="345.78918" y="212.12111" width="216.67465" height="40.9925"/></g></g></mask></defs><title>Demo SaaS_Logo</title><path class="cls-2" d="M162.91565,152.25741a3.43723,3.43723,0,0,1,1.38415-2.67255l5.18213-3.85352L135.942,138.69247l11.17517,32.10205,3.37134-7.16254a3.43733,3.43733,0,0,1,2.38977-1.89606,3.38788,3.38788,0,0,1,.71893-.07672,3.43993,3.43993,0,0,1,2.2373.82825l21.25379,18.24377,8.16907-8.36841-21.09083-17.36956A3.4324,3.4324,0,0,1,162.91565,152.25741Z" transform="translate(-53.29034 -35.7864)"/><path class="cls-2" d="M225.17975,76.72976l-64.18292-37.056a29.016,29.016,0,0,0-29.01575,0l-64.18292,37.056a29.0157,29.0157,0,0,0-14.50782,25.12835v74.11207a29.0157,29.0157,0,0,0,14.50782,25.12835l64.18292,37.056a29.01572,29.01572,0,0,0,29.01575,0l64.18292-37.056a29.01575,29.01575,0,0,0,14.50787-25.12835V101.85811A29.01575,29.01575,0,0,0,225.17975,76.72976ZM116.7923,147.33217,103.45935,149.652a3.28154,3.28154,0,0,1-.59241.05176,3.43559,3.43559,0,0,1-.58471-6.82038l13.33294-2.31976a3.43507,3.43507,0,1,1,1.17713,6.76855Zm6.47717-20.96612a3.4344,3.4344,0,0,1-4.85809,0L104.2099,112.1636a3.43521,3.43521,0,0,1,4.85815-4.8581l14.20142,14.2024A3.43433,3.43433,0,0,1,123.26947,126.36605Zm69.51666,48.121-13.031,13.3512a3.43681,3.43681,0,0,1-4.69617.207l-20.275-17.40405L149.74945,181.339a3.515,3.515,0,0,1-3.28888,1.96893,3.43913,3.43913,0,0,1-3.06463-2.30255L127.45465,135.2109a3.43619,3.43619,0,0,1,3.95038-4.492l46.95435,9.85425a3.43509,3.43509,0,0,1,1.3449,6.11866l-7.78179,5.788,20.5885,16.95544a3.43492,3.43492,0,0,1,.27514,5.05176Zm-55.088-56.06482V105.67306a3.43558,3.43558,0,1,1,6.87115,0V118.4222a3.43558,3.43558,0,1,1-6.87115,0Zm73.56854-24.39984a3.43349,3.43349,0,0,1-4.69323,1.25769L156.16528,66.17739a19.39667,19.39667,0,0,0-19.3529,0L86.40515,95.28005a3.43572,3.43572,0,0,1-3.43555-5.95093l50.40723-29.10266a26.29805,26.29805,0,0,1,26.224,0L210.009,89.32912A3.43581,3.43581,0,0,1,211.26666,94.02236Z" transform="translate(-53.29034 -35.7864)"/><path class="cls-3" d="M300.88309,93.09788h31.41285c13.27065,0,23.69623,4.33281,31.14252,12.86422,7.4463,8.5295,11.10234,20.03827,11.10234,34.52634,0,13.94742-3.656,25.32008-10.832,34.12181-7.31018,8.79981-17.73767,13.26874-31.41285,13.26874H300.88309Zm30.19353,84.08521c10.29137,0,18.1441-3.52184,23.424-10.42749,5.28181-6.90373,7.85274-15.56935,7.85274-26.26716,0-10.5617-2.57093-19.36151-7.85274-26.26716-5.27989-6.90565-13.13262-10.29138-23.424-10.29138H312.6641v73.25319Z" transform="translate(-53.29034 -35.7864)"/><path class="cls-3" d="M394.30492,179.07726c-5.55213-6.63341-8.25917-15.16483-8.25917-25.7246,0-10.5617,2.707-19.22731,7.98693-25.86264,5.27989-6.63342,13.13262-10.01914,23.2898-10.01914,9.47849,0,16.79058,3.11349,22.07047,9.34238,5.27989,6.365,7.85273,14.48806,7.85273,24.373v5.55021H397.95905c0,6.77145,1.62576,12.18554,5.01148,16.11383,3.38381,4.06056,8.12306,6.09277,14.48615,6.09277a21.67326,21.67326,0,0,0,11.51069-2.84317,12.92718,12.92718,0,0,0,5.95474-8.25917H446.2986a22.21382,22.21382,0,0,1-9.47849,15.299,32.24745,32.24745,0,0,1-19.36343,5.95857C407.57174,189.09831,399.85513,185.71259,394.30492,179.07726ZM435.46658,147.258c0-5.82053-1.49156-10.55978-4.605-14.21583s-7.71853-5.416-13.53906-5.416c-6.09277,0-10.832,1.76-14.08354,5.416-3.24769,3.65605-5.00765,8.3953-5.14377,14.21583Z" transform="translate(-53.29034 -35.7864)"/><path class="cls-3" d="M556.23686,124.24041c4.19861,4.60505,6.227,10.832,6.227,18.68475V187.879H551.09117V144.687c0-11.37457-5.14568-17.0609-15.299-17.0609-5.41793,0-9.6127,1.89608-12.73,5.82244-3.11348,3.92637-4.60121,9.34238-4.60121,16.248V187.879H507.08826V144.687c0-11.37457-5.14569-17.0609-15.30286-17.0609-5.41409,0-9.7469,1.89608-12.86038,5.82244-3.11732,3.92637-4.73925,9.34238-4.73925,16.248V187.879H462.80928V118.6902h9.88493l.94708,10.832h.54448c4.19477-7.98885,11.10042-12.05134,20.71312-12.05134,10.023,0,16.92478,4.06249,20.855,12.05134h.54064c4.19477-7.98885,11.64489-12.05134,22.33888-12.05134C546.21772,117.47088,552.03826,119.7734,556.23686,124.24041Z" transform="translate(-53.29034 -35.7864)"/><path class="cls-3" d="M584.52664,179.07726c-5.27989-6.63341-7.85274-15.16483-7.85274-25.7246,0-10.5617,2.71088-19.22731,7.99077-25.86264,5.27989-6.63342,13.13263-10.01914,23.2898-10.01914,10.15334,0,18.00607,3.38572,23.286,10.01914,5.27989,6.63533,7.99077,15.30094,7.99077,25.86264,0,10.55977-2.57285,19.09119-7.85273,25.7246-5.28373,6.63533-13.13646,10.02105-23.424,10.02105C597.52506,189.09831,589.81036,185.71259,584.52664,179.07726Zm38.45462-7.03986c3.11348-4.60312,4.73924-10.832,4.73924-18.68474,0-7.85465-1.62576-14.08163-4.73924-18.82087q-4.87153-6.90758-15.02679-6.90565c-6.63725,0-11.6449,2.3006-14.89642,6.90565-3.24769,4.73924-4.87345,10.96622-4.87345,18.82087q0,11.7791,4.87345,18.68474c3.25152,4.60313,8.25917,6.90566,14.89642,6.90566Q618.10588,178.94306,622.98126,172.0374Z" transform="translate(-53.29034 -35.7864)"/><path class="cls-3" d="M657.23343,180.29658c-6.63341-5.82245-10.28754-13.67518-10.694-23.69432h18.819c.40644,5.27989,2.30444,9.20626,5.82436,11.91522,3.38189,2.707,8.12114,4.06057,14.07971,4.06057,12.86421,0,19.22922-3.92637,19.22922-11.643a9.49667,9.49667,0,0,0-3.11732-7.44821c-2.02836-1.76-5.41409-3.24961-9.8811-4.19669l-13.8113-2.97928c-9.072-1.89609-15.9777-5.00957-20.71695-9.20626-4.87345-4.1986-7.31209-10.42558-7.31209-18.41443s3.24769-14.48806,9.7469-19.49763q9.54751-7.31306,25.99684-7.31209c10.69781,0,19.36343,2.84317,26.26908,8.39529a27.33111,27.33111,0,0,1,10.29137,21.664H703.13435a13.63284,13.63284,0,0,0-4.87345-9.74882c-2.97929-2.43864-7.31209-3.656-13.13263-3.656-5.41792,0-9.47849.94708-12.18553,2.707a8.49,8.49,0,0,0-4.19861,7.44821,8.23411,8.23411,0,0,0,2.84508,6.36309q2.64,2.64,9.34046,4.06249l12.86422,2.707c9.47849,2.0322,16.79058,5.14569,22.07047,9.61462q7.71853,6.70051,7.71853,19.09119c0,8.79981-3.11732,15.84158-9.47849,20.85115q-9.54752,7.71854-28.84192,7.71853C673.21114,189.09831,663.87068,186.119,657.23343,180.29658Z" transform="translate(-53.29034 -35.7864)"/><path class="cls-3" d="M735.76076,182.86942c-4.467-4.06248-6.63341-9.34237-6.63341-15.70738,0-6.63341,2.43481-12.04942,7.17406-15.97579,4.73924-3.92828,11.7791-5.82245,21.25759-5.82245a48.91189,48.91189,0,0,1,15.7093,2.16641v-6.09277a9.60968,9.60968,0,0,0-2.97928-7.44821c-2.03221-1.89609-5.01149-2.84317-9.21009-2.84317-3.65413,0-6.63342.81288-8.66562,2.57285a8.34638,8.34638,0,0,0-3.11348,6.49921h-17.059a21.867,21.867,0,0,1,7.71853-17.19511c5.00765-4.46893,12.18554-6.77145,21.526-6.77145q14.01644,0,21.93627,6.90565a23.224,23.224,0,0,1,7.98693,18.14411V187.879h-16.1119l-1.35353-7.31209h-.54064c-4.3328,5.68633-10.832,8.53141-19.63183,8.53141C746.05214,189.09831,740.09357,187.06611,735.76076,182.86942ZM769.2039,170.9542a12.13489,12.13489,0,0,0,4.0644-9.20817v-1.48964a39.63705,39.63705,0,0,0-13.94934-2.30061c-3.92636,0-6.90565.81288-8.934,2.30061a7.02293,7.02293,0,0,0-3.25153,6.09469,7.32845,7.32845,0,0,0,2.84509,6.09277c1.89416,1.48964,4.60121,2.3006,8.125,2.3006C762.70469,174.74445,766.36265,173.52705,769.2039,170.9542Z" transform="translate(-53.29034 -35.7864)"/><path class="cls-3" d="M805.89472,182.86942c-4.467-4.06248-6.63341-9.34237-6.63341-15.70738,0-6.63341,2.4348-12.04942,7.174-15.97579,4.73925-3.92828,11.7791-5.82245,21.25759-5.82245a48.91184,48.91184,0,0,1,15.7093,2.16641v-6.09277a9.60964,9.60964,0,0,0-2.97928-7.44821c-2.0322-1.89609-5.01149-2.84317-9.21009-2.84317-3.65413,0-6.63341.81288-8.66561,2.57285a8.34636,8.34636,0,0,0-3.11349,6.49921h-17.059a21.867,21.867,0,0,1,7.71853-17.19511c5.00765-4.46893,12.18554-6.77145,21.526-6.77145q14.01644,0,21.93627,6.90565a23.224,23.224,0,0,1,7.98694,18.14411V187.879H845.43062l-1.35352-7.31209h-.54064c-4.33281,5.68633-10.832,8.53141-19.63184,8.53141C816.18609,189.09831,810.22752,187.06611,805.89472,182.86942Zm33.44313-11.91522a12.13485,12.13485,0,0,0,4.0644-9.20817v-1.48964a39.637,39.637,0,0,0-13.94933-2.30061c-3.92637,0-6.90565.81288-8.934,2.30061a7.023,7.023,0,0,0-3.25152,6.09469,7.32845,7.32845,0,0,0,2.84508,6.09277c1.89416,1.48964,4.60121,2.3006,8.125,2.3006C832.83864,174.74445,836.4966,173.52705,839.33785,170.9542Z" transform="translate(-53.29034 -35.7864)"/><path class="cls-3" d="M879.6828,180.29658c-6.63341-5.82245-10.28754-13.67518-10.694-23.69432h18.81895c.40644,5.27989,2.30444,9.20626,5.82437,11.91522,3.38189,2.707,8.12113,4.06057,14.0797,4.06057,12.86422,0,19.22923-3.92637,19.22923-11.643a9.49667,9.49667,0,0,0-3.11732-7.44821c-2.02837-1.76-5.41409-3.24961-9.8811-4.19669l-13.8113-2.97928c-9.07206-1.89609-15.97771-5.00957-20.71695-9.20626-4.87345-4.1986-7.31209-10.42558-7.31209-18.41443s3.24768-14.48806,9.74689-19.49763q9.54751-7.31306,25.99684-7.31209c10.69782,0,19.36343,2.84317,26.26908,8.39529a27.33115,27.33115,0,0,1,10.29138,21.664H925.58371a13.63277,13.63277,0,0,0-4.87345-9.74882c-2.97928-2.43864-7.31209-3.656-13.13262-3.656-5.41793,0-9.47849.94708-12.18554,2.707a8.49,8.49,0,0,0-4.1986,7.44821,8.23411,8.23411,0,0,0,2.84508,6.36309q2.63994,2.64,9.34045,4.06249l12.86422,2.707c9.4785,2.0322,16.79059,5.14569,22.07048,9.61462q7.71852,6.70051,7.71853,19.09119c0,8.79981-3.11732,15.84158-9.4785,20.85115q-9.5475,7.71854-28.84192,7.71853C895.6605,189.09831,886.32005,186.119,879.6828,180.29658Z" transform="translate(-53.29034 -35.7864)"/><path class="cls-3" d="M303.8809,240.3916h-.14762l-.40644,2.61886h-2.69171v-27.2871h3.09815v11.06208h.14762a6.13045,6.13045,0,0,1,5.67866-2.95053,6.96157,6.96157,0,0,1,5.89914,2.69171,11.59067,11.59067,0,0,1,2.10314,7.04369,11.2547,11.2547,0,0,1-2.13957,7.153,7.22933,7.22933,0,0,1-5.86271,2.61886A6.13043,6.13043,0,0,1,303.8809,240.3916Zm9.2561-1.76955a10.46336,10.46336,0,0,0,0-10.06706,5.18857,5.18857,0,0,0-8.11346,0,9.896,9.896,0,0,0,0,10.03064,4.57593,4.57593,0,0,0,4.0203,1.99194A4.63648,4.63648,0,0,0,313.137,238.62205Z" transform="translate(-53.29034 -35.7864)"/><path class="cls-3" d="M324.17032,251.08558l3.20743-8.22274-.03643-.07286-7.5594-18.25338v-.37h3.31862l5.71509,14.78715h.14762l5.531-14.78715h3.24577v.37L327.303,251.4556h-3.13266Z" transform="translate(-53.29034 -35.7864)"/><g id="Page-1"><g id="landing_ok_" data-name="landing ok "><g id="footer"><g id="logo_frrontegg" data-name="logo frrontegg"><g class="cls-4"><g id="Group_1" data-name="Group 1"><path id="Path_1" data-name="Path 1" class="cls-3" d="M394.14875,244.46262V231.83693h-2.39291v-3.61207h2.39291V225.945a8.20909,8.20909,0,0,1,1.67172-5.43623,5.543,5.543,0,0,1,4.48532-1.9976,10.51256,10.51256,0,0,1,4.53751,1.0863l-.94893,3.5427a5.95368,5.95368,0,0,0-1.24944-.473,5.17729,5.17729,0,0,0-1.319-.19235q-2.46249,0-2.4625,3.29674v2.45482h4.49481v3.61207H398.8634v12.62569Z" transform="translate(-53.29034 -35.7864)"/><path id="Path_2" data-name="Path 2" class="cls-3" d="M420.85034,230.15308a9.321,9.321,0,0,0-3.8353.82458,4.82309,4.82309,0,0,0-2.42612,2.365V244.461h-4.71465V226.08536h4.32717v3.9274a8.5427,8.5427,0,0,1,2.47989-3.05079,5.25138,5.25138,0,0,1,3.21849-1.15725,5.13964,5.13964,0,0,1,.58044.01735,3.7347,3.7347,0,0,1,.37008.052Z" transform="translate(-53.29034 -35.7864)"/><path id="Path_3" data-name="Path 3" class="cls-3" d="M435.0623,244.81263a10.14969,10.14969,0,0,1-4.04406-.77255,9.06332,9.06332,0,0,1-3.04452-2.08589,9.21467,9.21467,0,0,1-1.91686-3.03029,10.20251,10.20251,0,0,1,0-7.25252,9.22251,9.22251,0,0,1,1.91686-3.035,9.10921,9.10921,0,0,1,3.04452-2.08589,10.1495,10.1495,0,0,1,4.04406-.771,10.03058,10.03058,0,0,1,4.02983.771,9.06728,9.06728,0,0,1,4.9424,5.12091,10.179,10.179,0,0,1,0,7.25252,9.35311,9.35311,0,0,1-1.89787,3.03344,8.86552,8.86552,0,0,1-3.035,2.08274,10.14967,10.14967,0,0,1-4.04564.77255m-4.81113-9.504a6.372,6.372,0,0,0,.37009,2.2262,5.437,5.437,0,0,0,1.02011,1.7343,4.59646,4.59646,0,0,0,1.52937,1.13833,4.67577,4.67577,0,0,0,3.79576,0,4.5965,4.5965,0,0,0,1.52938-1.13833,5.37694,5.37694,0,0,0,1.0201-1.75479,6.51494,6.51494,0,0,0,.37009-2.24355,6.42684,6.42684,0,0,0-.37009-2.20729,5.35651,5.35651,0,0,0-1.0201-1.75322,4.58548,4.58548,0,0,0-1.52938-1.13991,4.51786,4.51786,0,0,0-1.89788-.40361,4.34314,4.34314,0,0,0-1.89788.421,4.78575,4.78575,0,0,0-1.52937,1.15725,5.38791,5.38791,0,0,0-1.02011,1.75479,6.41293,6.41293,0,0,0-.37009,2.20729" transform="translate(-53.29034 -35.7864)"/><path id="Path_4" data-name="Path 4" class="cls-3" d="M468.44918,244.46262h-4.71465V234.15143a5.35835,5.35835,0,0,0-.775-3.2258,2.543,2.543,0,0,0-2.1446-1.01693,4.02985,4.02985,0,0,0-1.4424.28064,5.26306,5.26306,0,0,0-1.39019.78832,6.39751,6.39751,0,0,0-1.17827,1.20928,4.7762,4.7762,0,0,0-.775,1.54352v10.73216h-4.71306V226.08536h4.25757v3.40238a6.95043,6.95043,0,0,1,2.95437-2.73546,9.50289,9.50289,0,0,1,4.362-.98224,5.57672,5.57672,0,0,1,2.81519.63065,4.5797,4.5797,0,0,1,1.68752,1.64443,6.86468,6.86468,0,0,1,.82717,2.3145,15.18679,15.18679,0,0,1,.22933,2.62983Z" transform="translate(-53.29034 -35.7864)"/><path id="Path_5" data-name="Path 5" class="cls-3" d="M487.02309,243.51506a20.69268,20.69268,0,0,1-2.33913.84035,9.9144,9.9144,0,0,1-2.90218.42265,6.76967,6.76967,0,0,1-1.84727-.24607,4.06123,4.06123,0,0,1-1.512-.78832,3.81613,3.81613,0,0,1-1.03908-1.4032,5.04226,5.04226,0,0,1-.38748-2.08747V229.68955h-2.39291v-3.60419H476.996v-5.96283h4.71464v5.96283h3.90489v3.61207h-3.90489v8.97736a1.63538,1.63538,0,0,0,.52824,1.38586,2.02552,2.02552,0,0,0,1.26526.402,4.3471,4.3471,0,0,0,1.444-.24437c.46656-.15767.84456-.30429,1.12449-.421Z" transform="translate(-53.29034 -35.7864)"/><path id="Path_6" data-name="Path 6" class="cls-5" d="M501.48336,244.81263a10.28477,10.28477,0,0,1-4.01243-.75363,9.22718,9.22718,0,0,1-3.06034-2.04962,9.07685,9.07685,0,0,1-1.95165-3.01611,9.62124,9.62124,0,0,1-.6864-3.61207,10.1962,10.1962,0,0,1,.669-3.69878,9.02723,9.02723,0,0,1,1.93268-3.05237,9.27577,9.27577,0,0,1,3.07931-2.08589,10.2768,10.2768,0,0,1,4.063-.771,10.02751,10.02751,0,0,1,4.02825.771,9.2643,9.2643,0,0,1,3.02555,2.06855,8.79685,8.79685,0,0,1,1.89787,3.01768,9.9833,9.9833,0,0,1,.65165,3.57581c0,.30428,0,.596-.01744.8766a3.58971,3.58971,0,0,1-.08856.70161H496.76714a5.4402,5.4402,0,0,0,.52824,1.92822,4.73937,4.73937,0,0,0,2.60326,2.34919,4.96107,4.96107,0,0,0,1.7587.31532,5.454,5.454,0,0,0,2.657-.68426,3.631,3.631,0,0,0,1.70651-1.80524l4.04406,1.121a8.19638,8.19638,0,0,1-3.25328,3.456,10.1231,10.1231,0,0,1-5.3283,1.3496M506.266,233.732a4.86846,4.86846,0,0,0-1.531-3.31093,4.68178,4.68178,0,0,0-3.28808-1.24554,4.7451,4.7451,0,0,0-1.77768.33267,4.63736,4.63736,0,0,0-1.45978.93021,4.852,4.852,0,0,0-1.03751,1.43789,5.02161,5.02161,0,0,0-.47447,1.85885Z" transform="translate(-53.29034 -35.7864)"/><path id="Path_7" data-name="Path 7" class="cls-5" d="M524.73713,244.56668a7.621,7.621,0,0,1-3.35924-.73629,7.85891,7.85891,0,0,1-2.62065-2.01652,9.26612,9.26612,0,0,1-1.68753-2.96407,10.57278,10.57278,0,0,1-.601-3.57739,10.70843,10.70843,0,0,1,.63264-3.7177,9.70027,9.70027,0,0,1,1.76028-3.01453,7.95172,7.95172,0,0,1,6.157-2.77014,7.28352,7.28352,0,0,1,3.79577.96332,7.84766,7.84766,0,0,1,2.65071,2.57307v-3.22107h4.11207V243.586a8.5021,8.5021,0,0,1-.75441,3.64675,7.78718,7.78718,0,0,1-2.13354,2.72758,9.76807,9.76807,0,0,1-3.23905,1.71853,13.3807,13.3807,0,0,1-4.07886.5944,11.67986,11.67986,0,0,1-5.11794-.998,10.292,10.292,0,0,1-3.53639-2.82376l2.56847-2.4895a7.30871,7.30871,0,0,0,2.65387,2.03385,8.11733,8.11733,0,0,0,3.432.73629,7.27725,7.27725,0,0,0,2.09083-.298,4.83986,4.83986,0,0,0,1.75871-.93021,4.38085,4.38085,0,0,0,1.19724-1.61133,5.62086,5.62086,0,0,0,.44284-2.31607v-2.30662a6.23723,6.23723,0,0,1-2.56846,2.43748,7.62185,7.62185,0,0,1-3.55537.85927m1.61954-3.75236a4.45445,4.45445,0,0,0,1.47717-.246,4.97154,4.97154,0,0,0,1.28266-.66534,5.50984,5.50984,0,0,0,1.03751-.98224,4.50156,4.50156,0,0,0,.707-1.19352v-4.383a5.78342,5.78342,0,0,0-1.97221-2.59514,4.68276,4.68276,0,0,0-2.8136-.98224,4.2017,4.2017,0,0,0-1.98961.473,4.86155,4.86155,0,0,0-1.5278,1.2613,5.68124,5.68124,0,0,0-.96792,1.80683,6.64742,6.64742,0,0,0-.33688,2.10323,5.62739,5.62739,0,0,0,.38907,2.10481,5.39287,5.39287,0,0,0,1.0723,1.71853,4.99775,4.99775,0,0,0,1.618,1.15725,4.85893,4.85893,0,0,0,2.02441.421" transform="translate(-53.29034 -35.7864)"/><path id="Path_8" data-name="Path 8" class="cls-5" d="M550.52459,244.56668a7.621,7.621,0,0,1-3.35925-.73629,7.86516,7.86516,0,0,1-2.62223-2.01652,9.32433,9.32433,0,0,1-1.68755-2.96407,10.57272,10.57272,0,0,1-.5994-3.57739,10.708,10.708,0,0,1,.63262-3.7177,9.6704,9.6704,0,0,1,1.76028-3.01453,7.95017,7.95017,0,0,1,6.15546-2.77014,7.28037,7.28037,0,0,1,3.79576.96332,7.84751,7.84751,0,0,1,2.64439,2.57307v-3.22107h4.11206V243.586a8.50364,8.50364,0,0,1-.756,3.64675,7.76824,7.76824,0,0,1-2.12564,2.72758,9.74437,9.74437,0,0,1-3.23745,1.71853,13.38419,13.38419,0,0,1-4.08045.5944,11.68457,11.68457,0,0,1-5.11794-.998,10.30605,10.30605,0,0,1-3.5364-2.82376l2.56373-2.48162a7.31506,7.31506,0,0,0,2.65545,2.03386,8.116,8.116,0,0,0,3.43043.73629,7.29635,7.29635,0,0,0,2.09239-.298,4.83838,4.83838,0,0,0,1.75872-.93021,4.38111,4.38111,0,0,0,1.19724-1.61132,5.621,5.621,0,0,0,.44124-2.31608v-2.3145a6.23718,6.23718,0,0,1-2.56844,2.43748,7.61082,7.61082,0,0,1-3.5538.85927m1.618-3.75236a4.45791,4.45791,0,0,0,1.47876-.246,4.99646,4.99646,0,0,0,1.28265-.66534,5.55831,5.55831,0,0,0,1.03752-.98224,4.45509,4.45509,0,0,0,.70535-1.19352v-4.383a5.769,5.769,0,0,0-1.97062-2.59514,4.68587,4.68587,0,0,0-2.81518-.98224,4.19546,4.19546,0,0,0-1.988.473,4.86787,4.86787,0,0,0-1.52938,1.2613,5.71237,5.71237,0,0,0-.96791,1.80683,6.69109,6.69109,0,0,0-.33531,2.10323,5.6272,5.6272,0,0,0,.38908,2.10481,5.38759,5.38759,0,0,0,1.07072,1.71853,5.00362,5.00362,0,0,0,1.61952,1.15725,4.85092,4.85092,0,0,0,2.02283.421" transform="translate(-53.29034 -35.7864)"/><path id="Path_9" data-name="Path 9" class="cls-3" d="M367.58476,216.4947c-3.74515-4.05826-7.794-4.94275-11.84278-2.06067a21.55737,21.55737,0,0,0-6.60146,8.4618,26.94756,26.94756,0,0,0-1.9817,5.74684,22.37362,22.37362,0,0,0-.484,6.5856,14.80258,14.80258,0,0,0,4.99143,10.31749,12.14057,12.14057,0,0,0,1.22729.88923,14.8008,14.8008,0,0,0,11.188,1.5924,12.898,12.898,0,0,0,8.15615-5.96756,15.2528,15.2528,0,0,0,1.8188-5.16033c1.42341-8.40662-2.72662-16.33551-6.47177-20.3985m-9.05447.49191c-3.86061,2.41383-5.49595,7.21311-5.95935,8.86069a.63276.63276,0,0,1-.74017.44776h0a.63057.63057,0,0,1-.48238-.78831,20.97727,20.97727,0,0,1,1.32219-3.4686,14.60037,14.60037,0,0,1,5.19545-6.1268.63195.63195,0,1,1,.66426,1.07526" transform="translate(-53.29034 -35.7864)"/><path id="Path_10" data-name="Path 10" class="cls-5" d="M363.53594,251.03245a13.82281,13.82281,0,0,0,14.48716-1.86673c6.85767-5.71057,8.75713-17.37609,8.75713-17.37609s1.21148-6.04324-1.01853-9.53076-7.7386-3.45756-12.77906-1.7343a35.5752,35.5752,0,0,1,3.63761,14.68951,16.2856,16.2856,0,0,1-13.08114,15.81365" transform="translate(-53.29034 -35.7864)"/></g></g></g></g></g></g></svg>